inDegrees=yes
name=ik_MT_012005D6_009-001_orientations
DataType=double
version=3
OpenSimVersion=4.1
endheader
time	pelvis_tilt	pelvis_list	pelvis_rotation	pelvis_tx	pelvis_ty	pelvis_tz	hip_flexion_r	hip_adduction_r	hip_rotation_r	knee_angle_r	knee_angle_r_beta	ankle_angle_r	subtalar_angle_r	mtp_angle_r	hip_flexion_l	hip_adduction_l	hip_rotation_l	knee_angle_l	knee_angle_l_beta	ankle_angle_l	subtalar_angle_l	mtp_angle_l	lumbar_extension	lumbar_bending	lumbar_rotation	arm_flex_r	arm_add_r	arm_rot_r	elbow_flex_r	pro_sup_r	wrist_flex_r	wrist_dev_r	arm_flex_l	arm_add_l	arm_rot_l	elbow_flex_l	pro_sup_l	wrist_flex_l	wrist_dev_l
18.24000000000005	-2.538962205876371	-1.059104575368164	286.160972786672	0	0.9399999999999999	0	17.20546782923557	-12.5986389442049	-8.338680870839097	58.697000658783	1.024455922541044	-11.98088832334327	0	0	16.96462917793035	-0.8630586766149727	-4.606684018314617	13.71854472190232	0.2394337739792854	1.797469785785511	0	0	0	0	0	0	-14.99999927523806	0	75.00017584614541	45.00000025534056	0	0	0	-14.99999927523806	0	75.00017584614541	45.00000025534056	0	0
18.25000000000005	-2.629931140280552	-1.05539842188622	286.7759990441376	0	0.9399999999999999	0	17.9121799835282	-13.0735925554745	-8.122438568489683	57.74492127466397	1.007839002547807	-11.57445155258929	0	0	16.73666766339006	-0.6829621812917606	-4.313823219713226	13.82925039674473	0.2413659525059276	2.0454831179383	0	0	0	0	0	0	-14.99999927553623	0	75.00017584614541	45.00000025534056	0	0	0	-14.99999927553623	0	75.00017584614541	45.00000025534056	0	0
18.26000000000005	-2.760002767892882	-1.067148248341266	287.4244948234781	0	0.9399999999999999	0	18.37243410547977	-13.38929790466273	-8.045209567248051	56.31543064486332	0.9828896844313784	-11.14820287327206	0	0	16.53549022604632	-0.5814656155707392	-4.080257187208106	13.97772477601687	0.2439573192790813	2.298644597933287	0	0	0	0	0	0	-14.99999927797552	0	75.00017584614541	45.00000025534056	0	0	0	-14.99999927797552	0	75.00017584614541	45.00000025534056	0	0
18.27000000000006	-2.907230702303141	-1.05643183009589	288.0982644235444	0	0.9399999999999999	0	18.86204555512271	-13.56629788293181	-8.000330190879847	54.86378501095147	0.9575536885474164	-10.49396994080744	0	0	16.36234741354412	-0.4793557447235219	-3.888659921784223	14.09421609183936	0.2459904762901644	2.497789406826227	0	0	0	0	0	0	-14.9999992804668	0	75.00017584614541	45.00000025534056	0	0	0	-14.9999992804668	0	75.00017584614541	45.00000025534056	0	0
18.28000000000006	-2.99267978256515	-1.03741585148786	288.8160984372641	0	0.9399999999999999	0	19.29914421737669	-13.73058591694143	-7.890356214154107	53.37193479915295	0.9315159904049575	-9.673314910069207	0	0	16.21743367972478	-0.3555732638265701	-3.66384275469303	14.22423071918983	0.2482596596131834	2.661187213636538	0	0	0	0	0	0	-14.99999928296992	0	75.00017584614541	45.00000025534056	0	0	0	-14.99999928296992	0	75.00017584614541	45.00000025534056	0	0
18.29000000000006	-3.09635700076972	-1.01496301717294	289.5758833634224	0	0.9399999999999999	0	19.67105768583584	-13.76677936279973	-7.809443649150633	51.61805931244927	0.9009050884919602	-8.963811667058129	0	0	16.03785909397631	-0.2482373680039259	-3.405150040451721	14.33350438111102	0.2501668447994195	2.868062638375607	0	0	0	0	0	0	-14.99999928545643	0	75.00017584614541	45.00000025534056	0	0	0	-14.99999928545643	0	75.00017584614541	45.00000025534056	0	0
18.30000000000006	-3.149229430126089	-0.9798902013051509	290.3792465108907	0	0.9399999999999999	0	19.97751356627778	-13.78729464243376	-7.678093553806769	49.74277683675701	0.8681752348861798	-8.296824438759931	0	0	15.89593416196903	-0.08716979613194656	-3.099009617649858	14.51565886925236	0.2533460403647708	3.121277780392753	0	0	0	0	0	0	-14.99999928796433	0	75.00017584614541	45.00000025534056	0	0	0	-14.99999928796433	0	75.00017584614541	45.00000025534056	0	0
18.31000000000006	-3.168822334098436	-0.8949872756895162	291.2045731984142	0	0.9399999999999999	0	20.35193277088634	-13.74013138974749	-7.532950307283752	47.8286786442242	0.8347679192200099	-7.630958693055313	0	0	15.82226601171355	0.1433159636340349	-2.775230581057035	14.78358598783585	0.258022250739434	3.396870526188227	0	0	0	0	0	0	-14.99999929058819	0	75.00017584614541	45.00000025534056	0	0	0	-14.99999929058819	0	75.00017584614541	45.00000025534056	0	0
18.32000000000006	-3.196663776966284	-0.816576376978447	292.0714127478167	0	0.9399999999999999	0	20.71692209824873	-13.57086938851563	-7.348421936550745	45.83847032662604	0.800032231277345	-7.051915795906583	0	0	15.75097476521061	0.3507214121298269	-2.366874946872711	15.08723696614003	0.2633219600877438	3.727359549448154	0	0	0	0	0	0	-14.99999929320827	0	75.00017584614541	45.00000025534056	0	0	0	-14.99999929320827	0	75.00017584614541	45.00000025534056	0	0
18.33000000000007	-3.216142667821357	-0.7313080338648263	292.9674258664476	0	0.9399999999999999	0	21.1270340300435	-13.26243799912836	-7.058411996228461	43.88540285199913	0.7659447733314946	-6.431424427436475	0	0	15.71929169516546	0.5760287515047695	-1.902274062038543	15.40389126491025	0.268848620191878	4.047391284825554	0	0	0	0	0	0	-14.99999929577548	0	75.00017584614541	45.00000025534056	0	0	0	-14.99999929577548	0	75.00017584614541	45.00000025534056	0	0
18.34000000000007	-3.221570564728652	-0.6388409712827633	293.8911012728011	0	0.9399999999999999	0	21.56517675582899	-12.86036755002332	-6.617116667836688	42.03754671026364	0.7336935995550112	-5.754042390116778	0	0	15.71506684074017	0.8106685186564344	-1.36915839552846	15.75128225046698	0.274911736681591	4.348466570643017	0	0	0	0	0	0	-14.99999929835927	0	75.00017584614541	45.00000025534056	0	0	0	-14.99999929835927	0	75.00017584614541	45.00000025534056	0	0
18.35000000000007	-3.244202326847041	-0.5451922378734299	294.8449161657095	0	0.9399999999999999	0	22.02245927348662	-12.32592820240413	-6.088784638739121	40.21564938916564	0.7018954926685869	-5.121524954291675	0	0	15.71636512931672	1.052122133027259	-0.7682832735258787	16.14979132726023	0.2818670321707161	4.70599699012355	0	0	0	0	0	0	-14.99999930089457	0	75.00017584614541	45.00000025534056	0	0	0	-14.99999930089457	0	75.00017584614541	45.00000025534056	0	0
18.36000000000007	-3.263054230521635	-0.4695135987046298	295.8257785675448	0	0.9399999999999999	0	22.42787560497712	-11.71194828455379	-5.472695232648125	38.39620828815799	0.6701402549098925	-4.550490368595105	0	0	15.72155852179509	1.294149729466349	-0.0977058050364174	16.59863714951588	0.2897008696028985	5.081048974509295	0	0	0	0	0	0	-14.99999930337262	0	75.00017584614541	45.00000025534056	0	0	0	-14.99999930337262	0	75.00017584614541	45.00000025534056	0	0
18.37000000000007	-3.291510261829598	-0.3832908645966663	296.8356737011321	0	0.9399999999999999	0	22.77930012549296	-11.05683423422642	-4.792281221003366	36.498986068226	0.6370274805300834	-4.074415261651382	0	0	15.76284213989154	1.536251764528622	0.6168679755564971	17.07642713025697	0.2980398778998707	5.465028950230294	0	0	0	0	0	0	-14.99999930574996	0	75.00017584614541	45.00000025534056	0	0	0	-14.99999930574996	0	75.00017584614541	45.00000025534056	0	0
18.38000000000007	-3.324328318523989	-0.3054929864370813	297.8717455595208	0	0.9399999999999999	0	23.06500084170753	-10.37955110713598	-4.0673454062437	34.49301192719062	0.6020166270591509	-3.838039653583616	0	0	15.81816813912247	1.772524780431264	1.363671557436442	17.5981068806575	0.3071449071853422	5.864704893813355	0	0	0	0	0	0	-14.99999930805726	0	75.00017584614541	45.00000025534056	0	0	0	-14.99999930805726	0	75.00017584614541	45.00000025534056	0	0
18.39000000000008	-3.36290229823434	-0.2349225348685757	298.9345398905858	0	0.9399999999999999	0	23.26120072867226	-9.710948617869786	-3.330074412689075	32.35876431628458	0.5647669791960176	-3.842933815329099	0	0	15.90094486902947	2.015894921003659	2.129181460658649	18.17703579405612	0.3172491228591413	6.304530160951961	0	0	0	0	0	0	-14.99999931029473	0	75.00017584614541	45.00000025534056	0	0	0	-14.99999931029473	0	75.00017584614541	45.00000025534056	0	0
18.40000000000008	-3.402293992021848	-0.1843354716023942	300.0182741540808	0	0.9399999999999999	0	23.36744660214611	-9.085218599142804	-2.584443076267596	30.13562540857605	0.5259658855273135	-4.09021306120334	0	0	15.97137413494987	2.24863072927985	2.900306382662471	18.78775897769343	0.3279082532318742	6.746054972925887	0	0	0	0	0	0	-14.9999993124378	0	75.00017584614541	45.00000025534056	0	0	0	-14.9999993124378	0	75.00017584614541	45.00000025534056	0	0
18.41000000000008	-3.441631711740998	-0.1408696205591666	301.1271072127483	0	0.9399999999999999	0	23.40144269837546	-8.492848059372726	-1.825182401704206	27.86536021135239	0.4863422829423222	-4.466848315016424	0	0	16.05024676491055	2.485181633362063	3.668799224425545	19.38399449029683	0.3383145260441198	7.166662905704848	0	0	0	0	0	0	-14.99999931451597	0	75.00017584614541	45.00000025534056	0	0	0	-14.99999931451597	0	75.00017584614541	45.00000025534056	0	0
18.42000000000008	-3.480768285353998	-0.1051321319301272	302.2579400511028	0	0.9399999999999999	0	23.40245958693837	-7.974996300442498	-0.9961706380845241	25.68165842615435	0.4482294969089384	-4.871988114277571	0	0	16.11715828987685	2.688661631531621	4.411301408231832	19.96413649452932	0.3484399141470955	7.558115630591633	0	0	0	0	0	0	-14.99999931646455	0	75.00017584614541	45.00000025534056	0	0	0	-14.99999931646455	0	75.00017584614541	45.00000025534056	0	0
